<?xml version="1.0" encoding="UTF-8"?>
<!DOCTYPE svg PUBLIC "-//W3C//DTD SVG 1.1//EN" "http://www.w3.org/Graphics/SVG/1.1/DTD/svg11.dtd">
<!-- Creator: CorelDRAW 2021 (64 Bit) -->
<svg xmlns="http://www.w3.org/2000/svg" xml:space="preserve" width="210mm" height="210mm" version="1.1" style="shape-rendering:geometricPrecision; text-rendering:geometricPrecision; image-rendering:optimizeQuality; fill-rule:evenodd; clip-rule:evenodd"
viewBox="0 0 21000 21000"
 xmlns:xlink="http://www.w3.org/1999/xlink"
 xmlns:xodm="http://www.corel.com/coreldraw/odm/2003">
 <defs>
  <style type="text/css">
   <![CDATA[
    .fil0 {fill:url(#id0)}
    .fil1 {fill:url(#id1)}
   ]]>
  </style>
  <linearGradient id="id0" gradientUnits="objectBoundingBox" x1="0%" y1="50%" x2="100%" y2="50%">
   <stop offset="0" style="stop-opacity:1; stop-color:#21A6CF"/>
   <stop offset="1" style="stop-opacity:1; stop-color:#21A6CF"/>
  </linearGradient>
  <linearGradient id="id1" gradientUnits="userSpaceOnUse" xlink:href="#id0" x1="17806.81" y1="9522.93" x2="17834.47" y2="9528.77">
  </linearGradient>
 </defs>
 <g id="Camada_x0020_1">
  <metadata id="CorelCorpID_0Corel-Layer"/>
  <g id="_2400539574528">
   <path class="fil0" d="M17694.67 11057.64l-2379.21 0 0 -1174.52c27.37,23.7 69.93,33.53 116.59,23.57 59.64,-12.74 95.16,-77.62 136.7,-105.8 224.72,-231.33 532.15,-342.11 686.5,-383.35 270.31,-72.21 568.07,-26.34 753.3,71.02 320.07,168.25 345.04,354.14 409.83,404.11 101.05,77.96 282.73,-77.91 208.8,-195.64 -168.83,-268.88 -346.93,-448.37 -705.31,-535.01 -542.69,-131.19 -1112.15,78.16 -1561.09,510.42 -18.83,18.13 -33.8,35.82 -45.32,52.84l0 -289.48c433.89,-353.12 657.97,-412.47 792.01,-457.12 327.34,-109.03 793.11,-103.1 1080.68,11.27 194.48,77.33 326.71,157.31 467.07,304 11.7,12.23 25.25,27.28 39.45,43.94l0 1719.75zm-2379.21 -1933.32l0 -808.44 2379.21 0 0 627.45c-121.77,-91.61 -262.51,-164.28 -424.88,-219.13 -550.62,-186 -1195.87,-72.06 -1764.98,269.77 -38.48,23.11 -110.64,71.42 -189.35,130.35zm1119.67 762.61c444.07,0 453.12,297.48 539.79,335.59 73.46,32.29 179.53,-37.31 199.12,-117.24 27.98,-114.08 -128.06,-284.31 -209.3,-340.43 -262.4,-181.25 -652.5,-190.63 -992.64,0.49 -94.82,53.28 -328.96,221.46 -352.13,332.87 -22.29,107.17 113.49,206.82 243.52,50.12 133.85,-161.31 353.07,-261.4 571.64,-261.4zm-41.92 232.22c-209.93,0.1 -404.82,161.6 -449.84,375.27 -44.53,211.36 87.69,373.79 299.72,370.52 205.71,-3.17 403.92,-168.47 446.83,-377.69 41.83,-203.93 -92.62,-368.2 -296.71,-368.1z"/>
   <path class="fil0" d="M2721.97 8929.36l-37.75 271.76c-45.29,301.97 -75.49,498.25 -90.59,596.38 0,30.2 0,60.4 0,90.59 0,120.79 30.2,203.83 75.49,256.67 60.4,52.85 158.53,90.59 309.52,105.69 90.59,7.55 241.57,15.1 445.39,15.1 45.3,0 105.69,0 188.73,0l1660.81 0c-7.55,67.94 -15.1,113.24 -22.65,143.43 0,37.75 -15.1,67.94 -30.2,90.59 -15.1,15.1 -37.74,30.2 -67.94,37.75 -22.65,0 -83.04,7.55 -173.63,7.55l-1411.68 0 -1071.98 0c-45.29,332.16 -67.94,543.53 -67.94,649.22 0,113.24 15.1,196.28 52.84,256.67 45.3,52.84 113.24,90.59 203.83,120.78 105.69,15.1 347.26,30.2 739.81,30.2l1660.81 0c385,0 634.12,-15.1 739.81,-30.2 113.24,-30.19 196.28,-75.49 256.67,-135.88 45.29,-60.39 75.49,-135.88 105.69,-234.02 30.19,-105.69 75.49,-324.61 120.78,-656.77l37.75 -279.32c37.74,-301.97 60.39,-498.24 60.39,-588.83l0 -45.3c0,-135.88 -22.65,-234.02 -75.49,-294.41 -52.84,-60.39 -158.53,-105.69 -324.61,-120.79 -90.59,-15.1 -286.87,-15.1 -588.83,-15.1l-1660.81 0c15.1,-83.04 22.65,-135.88 22.65,-158.53 7.55,-30.19 15.1,-52.84 30.2,-67.94 15.1,-22.65 45.29,-37.74 75.49,-37.74 30.2,-7.55 105.69,-7.55 211.37,-7.55l1366.39 0c52.85,0 90.59,0 113.24,0 241.57,0 415.2,-7.55 505.79,-22.65 105.69,-15.1 181.18,-30.2 241.57,-60.39 105.69,-52.85 181.18,-150.99 226.47,-294.42 37.75,-105.69 83.05,-339.71 128.34,-686.97l-1071.97 0 -1660.81 0 -67.94 0c-271.77,0 -460.5,0 -566.18,15.1 -135.89,15.1 -234.03,45.29 -301.97,98.14 -75.49,60.39 -135.88,158.53 -173.63,309.51 -30.19,105.69 -67.94,317.06 -113.23,641.68zm4013.01 0l-37.75 279.31 -150.98 1064.43 -37.75 271.77 -75.49 535.98c-7.55,60.4 -15.1,105.69 -22.65,135.89 -15.09,37.74 -30.19,67.94 -52.84,105.68 -15.1,30.2 -52.84,75.49 -113.24,120.79 -30.19,30.2 -90.58,83.04 -188.72,166.08 7.55,0 67.94,0 173.63,0 113.23,0 173.63,0 173.63,0 286.86,0 475.59,-7.55 573.73,-15.1 143.43,-15.1 249.12,-52.84 317.06,-105.69 75.49,-52.84 135.88,-143.43 166.08,-279.31 30.2,-105.69 75.49,-324.61 120.79,-664.32l37.74 -271.77 150.98 -1064.43c15.1,-75.49 22.65,-120.78 22.65,-143.43 15.1,-45.29 22.65,-83.04 37.75,-98.14 22.64,-22.65 52.84,-30.19 90.59,-30.19 30.19,-7.55 83.04,-7.55 166.08,-7.55l-37.75 279.31 -150.98 1064.43 -37.75 271.77 -150.98 1064.42c392.56,0 641.68,-15.1 747.36,-37.75 105.69,-30.19 181.18,-67.94 226.48,-113.23 60.39,-60.4 113.23,-158.53 143.43,-286.87 30.2,-105.69 60.39,-309.51 105.69,-626.57l37.74 -271.77 150.99 -1064.43c15.09,-67.94 22.64,-113.23 22.64,-135.88 15.1,-52.84 22.65,-83.04 37.75,-98.14 22.65,-22.65 52.84,-37.74 83.04,-37.74 30.19,-7.55 98.14,-7.55 203.82,-7.55l-37.74 279.31 -150.98 1064.43 -37.75 271.77 -150.98 1064.42c377.45,0 619.03,-15.1 724.71,-30.2 128.34,-30.19 218.93,-75.49 279.32,-143.43 60.39,-75.49 98.14,-181.18 128.34,-324.61 22.64,-98.14 52.84,-286.87 90.58,-566.18l37.75 -271.77 150.98 -1064.43 37.75 -279.31c45.29,-332.16 67.94,-543.54 67.94,-641.68 0,-135.88 -22.65,-234.02 -75.49,-294.41 -45.3,-52.85 -120.79,-90.59 -234.02,-105.69 -90.59,-15.1 -241.58,-22.65 -452.95,-22.65 -45.29,0 -120.79,0 -226.47,7.55l-309.52 0 -1071.97 0 -279.32 0c-105.69,-7.55 -188.73,-7.55 -234.02,-7.55 -211.38,0 -362.36,7.55 -452.95,22.65 -128.33,15.1 -226.47,52.84 -286.86,113.24 -67.94,60.39 -120.79,173.63 -158.53,332.16 -15.1,98.13 -45.3,294.41 -90.59,596.38zm7025.1 -1064.43c-15.09,0 -37.74,0 -67.94,0 -22.65,0 -60.39,0 -120.78,0l-2732.78 0c0,52.85 0,98.14 0,128.34 0,196.27 7.55,347.26 7.55,437.84 15.1,166.09 45.29,279.32 90.59,347.26 52.84,67.95 143.43,113.24 279.31,135.89 90.59,7.55 279.32,15.1 551.09,15.1l1472.08 0 188.72 0c-7.55,83.04 -15.1,135.88 -22.64,166.08 0,30.19 -7.55,52.84 -22.65,67.94 -15.1,15.1 -37.75,30.19 -67.94,37.74 -15.1,0 -60.4,7.55 -120.79,7.55l-1472.08 0c-45.29,0 -75.49,0 -105.68,0 -279.32,0 -475.6,7.55 -581.28,22.65 -128.34,15.1 -226.48,60.39 -294.42,128.34 -60.39,60.39 -113.24,181.17 -150.98,362.35 -15.1,90.59 -45.3,271.77 -83.04,543.54l-45.3 279.32c-37.74,301.96 -60.39,505.79 -67.94,611.47 0,15.1 0,30.2 0,45.3 0,120.78 15.1,203.82 60.39,264.22 45.3,52.84 120.79,90.59 226.48,113.23 105.68,15.1 339.71,30.2 702.06,30.2l1638.16 0c377.46,0 619.03,-15.1 724.72,-30.2 105.68,-22.64 188.72,-52.84 249.12,-98.13 67.94,-52.85 120.78,-135.89 150.98,-241.58 37.74,-105.68 83.04,-332.16 128.33,-694.51l105.69 -770.01 120.79 -845.5c37.74,-271.77 60.39,-452.95 60.39,-543.54 7.55,-45.29 7.55,-75.49 7.55,-105.69 0,-158.53 -37.75,-264.22 -113.24,-317.06 -45.29,-37.75 -120.78,-60.39 -226.47,-75.49 -90.59,-15.1 -249.12,-22.65 -468.05,-22.65zm-2008.06 2400.62l1298.45 0 188.73 0c-7.55,83.04 -15.1,135.88 -22.65,166.08 -7.55,30.2 -15.1,60.39 -30.2,75.49 -7.55,15.1 -22.65,22.65 -52.84,30.2 -15.1,0 -60.39,7.55 -120.79,7.55l-1298.44 0 -181.18 0c15.09,-60.4 22.64,-105.69 22.64,-128.34 7.55,-60.39 15.1,-98.14 30.2,-113.24 15.1,-15.09 30.2,-30.19 52.84,-30.19 15.1,-7.55 52.85,-7.55 113.24,-7.55zm3477.03 2242.08l150.98 -898.34 1653.26 0c52.84,0 90.58,0 105.68,0 279.32,0 468.05,-7.55 573.73,-22.65 135.89,-22.64 234.03,-60.39 294.42,-120.78 75.49,-67.95 128.34,-181.18 158.53,-339.71 22.65,-105.69 52.85,-294.42 90.59,-581.28 128.34,-898.35 203.83,-1434.34 226.47,-1615.51 45.3,-256.67 67.95,-422.75 67.95,-513.34 7.55,-60.4 7.55,-105.69 7.55,-143.44 0,-90.59 -7.55,-166.08 -37.75,-218.92 -45.3,-105.69 -188.73,-158.53 -422.75,-173.63 -90.59,-15.1 -264.22,-15.1 -520.89,-15.1l-15.1 0 -1660.8 0 -22.65 0c-294.41,0 -498.24,7.55 -603.93,22.65 -181.18,15.1 -309.51,67.94 -385,158.53 -52.85,67.94 -98.14,181.18 -135.89,347.26 -15.09,90.59 -37.74,264.22 -75.49,535.99l-37.74 279.31 -332.16 2400.62 -135.89 1064.42c-7.55,60.4 -15.1,98.14 -22.64,120.79 -7.55,30.2 -22.65,67.94 -52.85,98.14 -15.1,30.2 -45.29,60.39 -90.59,105.69 -30.19,30.19 -90.59,75.49 -181.18,150.98 7.55,0 30.2,0 67.95,0 181.17,0 279.31,0 294.41,0 105.69,0 196.28,-7.55 271.77,-15.1 120.78,-15.1 218.92,-22.65 301.96,-52.84 90.59,-30.2 158.53,-67.95 211.38,-105.69 83.04,-60.39 143.43,-143.43 188.73,-234.02 30.19,-67.95 52.84,-143.44 67.94,-234.03zm1638.15 -1962.76l-193.33 0c-64.11,181.18 -244.37,317.2 -430.78,320.07 -194.81,3 -322.24,-133.88 -307.11,-320.07l-412.52 0 114.3 -809.22c-23.66,20.6 -46.75,42.32 -69.01,65.24 -41.54,28.18 -77.06,93.06 -136.7,105.8 -125.53,26.8 -221.53,-89.58 -71.27,-234.25 101.83,-98.05 209.88,-184.57 322.39,-258.31l29.02 -205.46c4.7,-23.48 9.4,-44.77 13.87,-63.64 -121.3,70.72 -271,173.88 -457.77,329.62 -56.53,50.31 -141.48,172.12 -245.07,109.45 -37.14,-22.46 -51.97,-59.77 -40.21,-115.77 29.01,-138.13 412.15,-408.5 521.8,-474.36 569.11,-341.83 1214.36,-455.77 1764.98,-269.77 370.51,125.16 628.48,343.08 805.08,667.23 65.3,119.87 -136.21,295.24 -244.07,154.71 -3.63,-25.46 -1.83,-24.45 -20.33,-40.58 -25.75,-60.83 -106.51,-160.67 -155.25,-211.61 -86.35,-90.24 -169.63,-155.24 -266.21,-209.9l-39.38 280.43c108.51,88.77 194.17,199.75 277.55,332.55 73.93,117.73 -107.75,273.6 -208.8,195.64 -34.27,-26.43 -57.42,-90.89 -118.97,-170.66l-77.4 551.09c-7.55,67.94 -15.1,113.23 -22.64,143.43 -7.55,37.75 -22.65,67.94 -45.3,90.59 -15.1,7.55 -30.2,15.1 -52.84,30.2 -15.1,0 -37.75,0 -67.94,7.55 -75.5,0 -128.34,0 -158.54,0l-7.55 0zm-562.69 -1615.51l666.31 0c-206.57,-38.35 -450.05,-38.8 -666.31,0z"/>
   <path class="fil1" d="M17830.8 9546.14c-3.63,-25.46 -1.83,-24.45 -20.33,-40.58 3.74,24.98 2.35,24.3 20.33,40.58z"/>
  </g>
 </g>
</svg>
